HIERARCHY
ROOT Hips
{
	OFFSET	0.000000	0.000000	0.000000
	CHANNELS 6 Xposition Yposition Zposition Zrotation Xrotation Yrotation
	JOINT LeftHip
	{
		OFFSET	4.740440	-3.195970	-0.322709
		CHANNELS 3 Zrotation Xrotation Yrotation
		JOINT LeftKnee
		{
			OFFSET	-1.605680	-15.592300	1.005510
			CHANNELS 3 Zrotation Xrotation Yrotation
			JOINT LeftAnkle
			{
				OFFSET	-0.632401	-16.421000	-1.413730
				CHANNELS 3 Zrotation Xrotation Yrotation
				End Site
				{
					OFFSET	0.008423	-2.933000	-1.684880
				}
			}
		}
	}
	JOINT RightHip
	{
		OFFSET	-4.740440	-3.195970	-0.322709
		CHANNELS 3 Zrotation Xrotation Yrotation
		JOINT RightKnee
		{
			OFFSET	1.605680	-15.592300	1.005510
			CHANNELS 3 Zrotation Xrotation Yrotation
			JOINT RightAnkle
			{
				OFFSET	0.632401	-16.421000	-1.413730
				CHANNELS 3 Zrotation Xrotation Yrotation
				End Site
				{
					OFFSET	-0.008423	-2.933000	-1.684880
				}
			}
		}
	}
	JOINT Chest
	{
		OFFSET	0.000000	3.468200	0.078401
		CHANNELS 3 Zrotation Xrotation Yrotation
		JOINT LeftCollar
		{
			OFFSET	3.857650	15.070700	-0.011583
			CHANNELS 3 Zrotation Xrotation Yrotation
			JOINT LeftShoulder
			{
				OFFSET	3.979720	-1.940530	-0.165223
				CHANNELS 3 Zrotation Xrotation Yrotation
				JOINT LeftElbow
				{
					OFFSET	0.615844	-10.986600	-0.673886
					CHANNELS 3 Zrotation Xrotation Yrotation
					JOINT LeftWrist
					{
						OFFSET	0.826843	-10.854500	1.034220
						CHANNELS 3 Zrotation Xrotation Yrotation
						End Site
						{
							OFFSET	-1.679080	-8.456540	0.936217
						}
					}
				}
			}
		}
		JOINT RightCollar
		{
			OFFSET	-3.857650	15.070700	-0.011583
			CHANNELS 3 Zrotation Xrotation Yrotation
			JOINT RightShoulder
			{
				OFFSET	-3.979720	-1.940530	-0.165223
				CHANNELS 3 Zrotation Xrotation Yrotation
				JOINT RightElbow
				{
					OFFSET	-0.615845	-10.986600	-0.673886
					CHANNELS 3 Zrotation Xrotation Yrotation
					JOINT RightWrist
					{
						OFFSET	-0.826843	-10.854500	1.034220
						CHANNELS 3 Zrotation Xrotation Yrotation
						End Site
						{
							OFFSET	1.679080	-8.456540	0.936217
						}
					}
				}
			}
		}
		JOINT Neck
		{
			OFFSET	0.000000	15.101400	0.055730
			CHANNELS 3 Zrotation Xrotation Yrotation
			JOINT Head
			{
				OFFSET	0.000000	4.185120	1.488260
				CHANNELS 3 Zrotation Xrotation Yrotation
				End Site
				{
					OFFSET	0.000000	7.773420	-0.106016
				}
			}
		}
	}
}
MOTION
Frames:    12
Frame Time: 0.016667
1.972585	37.622730	-2.640306	1.803062	-10.439391	-19.919100	-6.356938	6.561235	-2.707754	-2.791031	1.462554	4.595767	6.393310	-1.116620	8.269471	-19.843626	-2.540852	-0.237703	4.635367	20.999321	5.460909	8.943548	-9.135986	5.319392	-9.604942	5.131875	3.196535	-1.353596	2.692376	0.152027	6.898480	-2.756229	6.184877	-8.148343	-7.995322	-14.850412	14.843601	10.339326	-21.247353	3.227486	1.111606	-2.570446	-5.972559	-0.790668	-0.627619	2.684827	-10.188235	20.670792	-21.458368	4.846690	24.314846	-0.629624	15.275421	-6.051393	11.615705	7.070255	-16.023378	
1.972585	37.622730	-2.640306	1.803062	-10.439391	-19.919100	-6.356938	6.561235	-2.707754	-2.791031	1.462554	4.595767	6.393310	-1.116620	8.269471	-19.843626	-2.540852	-0.237703	4.635367	20.999321	5.460909	8.943548	-9.135986	5.319392	-9.604942	5.131875	3.196535	-1.358496	2.699201	0.152709	6.901385	-2.754965	6.184450	-8.147309	-8.003614	-14.850892	14.843601	10.339326	-21.247353	3.227486	1.111606	-2.570446	-5.971519	-0.786466	-0.627592	2.683868	-10.192442	20.670971	-21.461567	4.861103	24.315142	-0.629624	15.275421	-6.051393	11.615100	7.081655	-16.028749	
1.972585	37.622730	-2.640306	1.803062	-10.439391	-19.919100	-6.356938	6.561235	-2.707754	-2.791031	1.462554	4.595767	6.393310	-1.116620	8.269471	-19.843626	-2.540852	-0.237703	4.635367	20.999321	5.460909	8.943548	-9.135986	5.319392	-9.604942	5.131875	3.196535	-1.373462	2.718104	0.160539	6.909461	-2.747779	6.176978	-8.152033	-8.025634	-14.853211	14.857892	10.352606	-21.247272	3.220556	1.121343	-2.574005	-5.962871	-0.791146	-0.624856	2.682707	-10.197521	20.671190	-21.464785	4.875592	24.315443	-0.631680	15.290194	-6.047440	11.618240	7.102099	-16.044565	
1.972585	37.622730	-2.640306	1.803062	-10.439391	-19.919100	-6.356938	6.561235	-2.707754	-2.791031	1.462554	4.595767	6.393310	-1.116620	8.269471	-19.843626	-2.540852	-0.237703	4.635367	20.999321	5.460909	8.943548	-9.135986	5.319392	-9.604942	5.131875	3.196535	-1.378204	2.722794	0.166839	6.911618	-2.743786	6.170555	-8.160130	-8.029020	-14.854607	14.870350	10.355537	-21.246891	3.216858	1.126528	-2.575886	-5.957648	-0.791175	-0.623400	2.681530	-10.202693	20.671423	-21.466440	4.883032	24.315596	-0.632488	15.296045	-6.045874	11.619963	7.108311	-16.049604	
1.972585	37.622730	-2.640306	1.803062	-10.439391	-19.919100	-6.356938	6.561235	-2.707754	-2.791031	1.462554	4.595767	6.393310	-1.116620	8.269471	-19.843626	-2.540852	-0.237703	4.630275	21.001245	5.462513	8.948191	-9.138290	5.319987	-9.604942	5.131875	3.196535	-1.396307	2.744297	0.180441	6.921834	-2.736864	6.157502	-8.166145	-8.052995	-14.857249	14.869858	10.379332	-21.242456	3.205508	1.142450	-2.581691	-5.941398	-0.790328	-0.618843	2.677700	-10.219504	20.672123	-21.471460	4.905621	24.316051	-0.635015	15.314249	-6.040994	11.626733	7.127409	-16.063904	
1.972585	37.622730	-2.640306	1.803062	-10.439391	-19.919100	-6.356938	6.561235	-2.707754	-2.791031	1.462554	4.595767	6.393310	-1.116620	8.269471	-19.843626	-2.540852	-0.237703	4.624431	21.003456	5.464346	8.953521	-9.140935	5.320673	-9.604942	5.131875	3.196535	-1.403349	2.753224	0.184065	6.926125	-2.735522	6.154253	-8.169936	-8.060412	-14.858344	14.871342	10.387105	-21.236334	3.201623	1.147900	-2.583676	-5.934281	-0.783747	-0.617251	2.672725	-10.222156	20.672415	-21.474081	4.904297	24.312551	-0.636831	15.327290	-6.037494	11.631112	7.127009	-16.068611	
1.972585	37.622730	-2.640306	1.803062	-10.439391	-19.919100	-6.356938	6.561235	-2.707754	-2.791031	1.462554	4.595767	6.393310	-1.116620	8.269471	-19.843626	-2.540852	-0.237703	4.606498	21.010233	5.469954	8.969881	-9.149046	5.322814	-9.616652	5.144737	3.199237	-1.414052	2.765396	0.198932	6.938690	-2.728458	6.138182	-8.185159	-8.077393	-14.862208	14.880260	10.406556	-21.210604	3.201038	1.150509	-2.590466	-5.918751	-0.786873	-0.612687	2.667249	-10.224694	20.672686	-21.480083	4.916522	24.308935	-0.627334	15.327650	-6.035651	11.638799	7.152030	-16.081694	
1.972585	37.622730	-2.640306	1.803062	-10.439391	-19.919100	-6.356938	6.561235	-2.707754	-2.791031	1.462554	4.595767	6.393310	-1.116620	8.269471	-19.843626	-2.540852	-0.237703	4.600250	21.012592	5.471913	8.975578	-9.151873	5.323550	-9.621103	5.149657	3.200253	-1.416483	2.766811	0.206998	6.942018	-2.724200	6.129359	-8.188310	-8.073499	-14.863450	14.882915	10.403855	-21.198254	3.201422	1.150616	-2.592716	-5.912972	-0.785068	-0.611158	2.664266	-10.226062	20.672810	-21.482315	4.918532	24.306868	-0.624019	15.329868	-6.034373	11.642269	7.157735	-16.085981	
1.972079	37.622414	-2.639517	1.813902	-10.421495	-19.920626	-6.361001	6.540519	-2.706545	-2.791031	1.462554	4.595767	6.393310	-1.116620	8.269471	-19.847713	-2.561278	-0.241370	4.580833	21.019926	5.477998	8.993289	-9.160655	5.325863	-9.639054	5.144403	3.203476	-1.424406	2.771559	0.232796	6.953246	-2.713129	6.101362	-8.187686	-8.093037	-14.865954	14.873992	10.424335	-21.164515	3.206695	1.145238	-2.597743	-5.898948	-0.773046	-0.607945	2.654749	-10.231043	20.673304	-21.489084	4.923707	24.300339	-0.613696	15.337753	-6.030118	11.572893	7.182140	-16.000010	
1.971909	37.622307	-2.639252	1.817530	-10.415506	-19.921135	-6.362360	6.533588	-2.706146	-2.791031	1.462554	4.595767	6.393310	-1.116620	8.269471	-19.849081	-2.568111	-0.242602	4.574016	21.022501	5.480139	8.999507	-9.163739	5.326671	-9.653754	5.152250	3.206534	-1.419199	2.763422	0.240394	6.957293	-2.709705	6.091621	-8.188787	-8.088315	-14.854279	14.877520	10.417977	-21.161949	3.222149	1.132776	-2.596000	-5.897929	-0.760317	-0.610954	2.648082	-10.233713	20.673628	-21.492018	4.918681	24.295448	-0.599754	15.343592	-6.018157	11.533945	7.175560	-15.966501	
1.971380	37.621971	-2.638426	1.828900	-10.396730	-19.922739	-6.366621	6.511851	-2.704880	-2.791031	1.462554	4.595767	6.393310	-1.116620	8.269471	-19.853373	-2.589542	-0.246453	4.553732	21.030155	5.486506	9.018006	-9.172908	5.329072	-9.666998	5.140559	3.208627	-1.433927	2.775964	0.269895	6.973238	-2.697518	6.079199	-8.191327	-8.107671	-14.858744	14.871757	10.436105	-21.137186	3.231373	1.149496	-2.591609	-5.893488	-0.770726	-0.618697	2.639706	-10.230305	20.673775	-21.498674	4.921031	24.288246	-0.584069	15.360317	-5.989363	11.494765	7.157901	-15.952089	
1.971195	37.621849	-2.638138	1.832871	-10.390177	-19.923296	-6.368108	6.504262	-2.704445	-2.791031	1.462554	4.595767	6.393310	-1.116620	8.269471	-19.854874	-2.597022	-0.247804	4.547502	21.032509	5.488450	9.023688	-9.175727	5.329824	-9.678024	5.143534	3.210822	-1.433093	2.773015	0.279182	6.979159	-2.693680	6.075933	-8.192774	-8.102913	-14.848442	14.874943	10.428773	-21.138004	3.240823	1.148458	-2.590265	-5.891570	-0.772524	-0.621734	2.634885	-10.225791	20.673782	-21.501472	4.915977	24.283495	-0.570871	15.362022	-5.975256	11.449574	7.160107	-15.919456	
